<svg viewBox="0 0 280 360" xmlns="http://www.w3.org/2000/svg" font-family="'Courier New', monospace">
  <rect width="280" height="360" fill="white"/>
  <rect x="30" y="20" width="220" height="320" fill="#fffef0" stroke="#ddd" stroke-width="1" rx="3"/>
  <polyline points="30,20 40,10 50,20 60,10 70,20 80,10 90,20 100,10 110,20 120,10 130,20 140,10 150,20 160,10 170,20 180,10 190,20 200,10 210,20 220,10 230,20 240,10 250,20" fill="none" stroke="#ddd" stroke-width="1"/>
  <text x="140" y="50" text-anchor="middle" font-size="15" font-weight="bold" fill="#333">영 수 증</text>
  <text x="140" y="68" text-anchor="middle" font-size="10" fill="#888">2023년 10월 1일</text>
  <line x1="45" y1="75" x2="235" y2="75" stroke="#333" stroke-width="1" stroke-dasharray="4,2"/>
  <text x="50" y="97" font-size="11" fill="#555">품목</text>
  <text x="170" y="97" text-anchor="middle" font-size="11" fill="#555">수량</text>
  <text x="225" y="97" text-anchor="end" font-size="11" fill="#555">금액</text>
  <line x1="45" y1="104" x2="235" y2="104" stroke="#ccc" stroke-width="0.5"/>
  <text x="50" y="124" font-size="12" fill="#333">치약</text>
  <text x="170" y="124" text-anchor="middle" font-size="12" fill="#555">1개</text>
  <text x="225" y="124" text-anchor="end" font-size="12" fill="#333">2,000원</text>
  <line x1="45" y1="132" x2="235" y2="132" stroke="#eee" stroke-width="0.5"/>
  <text x="50" y="152" font-size="12" fill="#333">비누</text>
  <text x="170" y="152" text-anchor="middle" font-size="12" fill="#555">2개</text>
  <text x="225" y="152" text-anchor="end" font-size="12" fill="#333">2,000원</text>
  <line x1="45" y1="160" x2="235" y2="160" stroke="#eee" stroke-width="0.5"/>
  <text x="50" y="180" font-size="12" fill="#333">라면</text>
  <text x="170" y="180" text-anchor="middle" font-size="12" fill="#555">3개</text>
  <text x="225" y="180" text-anchor="end" font-size="12" fill="#333">1,500원</text>
  <line x1="45" y1="190" x2="235" y2="190" stroke="#333" stroke-width="1.5"/>
  <text x="50" y="215" font-size="13" font-weight="bold" fill="#333">합 계</text>
  <text x="225" y="215" text-anchor="end" font-size="13" font-weight="bold" fill="#333">5,500원</text>
  <line x1="45" y1="225" x2="235" y2="225" stroke="#eee" stroke-width="0.5"/>
  <text x="50" y="248" font-size="12" fill="#555">받은 금액</text>
  <text x="225" y="248" text-anchor="end" font-size="12" fill="#555">10,000원</text>
  <line x1="45" y1="258" x2="235" y2="258" stroke="#eee" stroke-width="0.5"/>
  <text x="50" y="285" font-size="14" font-weight="bold" fill="#e74c3c">거스름돈</text>
  <text x="225" y="285" text-anchor="end" font-size="14" font-weight="bold" fill="#e74c3c">4,500원</text>
  <line x1="45" y1="295" x2="235" y2="295" stroke="#333" stroke-width="1" stroke-dasharray="4,2"/>
  <text x="140" y="318" text-anchor="middle" font-size="10" fill="#888">감사합니다 ♥</text>
  <polyline points="30,340 40,350 50,340 60,350 70,340 80,350 90,340 100,350 110,340 120,350 130,340 140,350 150,340 160,350 170,340 180,350 190,340 200,350 210,340 220,350 230,340 240,350 250,340" fill="none" stroke="#ddd" stroke-width="1"/>
</svg>
